 http://img842.imageshack.us/img842/5182/1842561.jpg

Country.......: USA
Genre.........: Horror, Thriller, Comedy
Date release..: 29.04.2011 [World]
Director......: Kevin Munroe
Writers.......: Thomas Dean Donnelly, Joshua Oppenheimer
Duration......: 108 min.
More..........: http://www.imdb.com/title/tt1013860
Trailer.......: http://www.imdb.com/video/imdb/vi4273511705
Trailer.......:

Pilot :
The adventures of supernatural private eye, Dylan Dog, who seeks out the monsters of the Louisiana bayou in his signature red shirt, black jacket, and blue jeans.

Cats :
Brandon Routh   	 ...  	Dylan Dog
Sam Huntington 	... 	Marcus
Peter Stormare 	... 	Gabriel
Taye Diggs 	... 	Vargas
Anita Briem 	... 	Elizabeth
Andrew Sensenig 	... 	Rosenberg
Brian Steele 	... 	Tatooed Zombie
Kurt Angle 	... 	Wolfgang
Randal Reeder 	... 	Bob the Mechanic
Kimberly Whalen 	... 	Kelly
James Hebert 	... 	Lorca
Courtney J. Clark 	... 	Ally
Kent Jude Bernard 	... 	Slake
Ada Michelle Loridans 	... 	Zombie Mall Rat
Marco St. John 	... 	Borelli 

Data Technical :
!!! SAMPLE !!!
Audio.....: English
Subtitles.: None
Format                           : AVI
Format/Info                      : Audio Video Interleave
File size                        : 1.37 GiB
Duration                         : 1h 47mn
Overall bit rate                 : 1 819 Kbps
Writing application              : VirtualDubMod 1.5.10.2 (build 2540/release)
Writing library                  : VirtualDubMod build 2540/release
Video
ID                               : 0
Format                           : MPEG-4 Visual
Format profile                   : Advanced Simple@L5
Format settings, BVOP            : Yes
Format settings, QPel            : No
Format settings, GMC             : No warppoints
Format settings, Matrix          : Default (MPEG)
Muxing mode                      : Packed bitstream
Codec ID                         : XVID
Codec ID/Hint                    : XviD
Duration                         : 1h 47mn
Bit rate                         : 1 425 Kbps
Width                            : 640 pixels
Height                           : 272 pixels
Display aspect ratio             : 2.35:1
Frame rate                       : 23.976 fps
Color space                      : YUV
Chroma subsampling               : 4:2:0
Bit depth                        : 8 bits
Scan type                        : Progressive
Bits/(Pixel*Frame)               : 0.341
Stream size                      : 1.07 GiB (78%)
Writing library                  : XviD 58
Audio
ID                               : 1
Format                           : AC-3
Format/Info                      : Audio Coding 3
Mode extension                   : CM (complete main)
Codec ID                         : 2000
Duration                         : 1h 47mn
Bit rate mode                    : Constant
Bit rate                         : 384 Kbps
Channel(s)                       : 6 channels
Channel positions                : Front: L C R, Side: L R, LFE
Sampling rate                    : 48.0 KHz
Bit depth                        : 16 bits
Stream size                      : 296 MiB (21%)
Alignment                        : Split accross interleaves
Interleave, duration             : 42 ms (1.00 video frame)
Interleave, preload duration     : 500 ms

Screen : 
http://img845.imageshack.us/img845/3933/dylandogdeadofnight2011.jpg 
http://img600.imageshack.us/img600/3933/dylandogdeadofnight2011.jpg 
http://img641.imageshack.us/img641/3933/dylandogdeadofnight2011.jpg 
http://img200.imageshack.us/img200/3933/dylandogdeadofnight2011.jpg 
http://img233.imageshack.us/img233/3933/dylandogdeadofnight2011.jpg